<svg width="32" height="48" viewBox="0 0 31 52" fill="none" xmlns="http://www.w3.org/2000/svg">
<path d="M14.9995 0C15.6076 1.83719 16.2666 3.59796 17.0015 5.29577H13.0859C13.8116 3.56339 14.4504 1.79619 14.9995 0V0Z" fill="white"/>
<path d="M13.115 5.33396H17.0305C17.783 7.03909 18.629 8.70103 19.5646 10.313H10.7969C11.6757 8.68835 12.4661 7.01806 13.1657 5.30859L13.115 5.33396Z" fill="white"/>
<path d="M15.1929 11.8332C14.5267 13.2249 13.769 14.5711 12.9249 15.8626H7.16016C8.48382 14.1104 9.67777 12.2637 10.7329 10.3379H19.5007C20.5749 12.2533 21.7953 14.0836 23.1502 15.8118H17.3217C16.487 14.5566 15.774 13.2242 15.1929 11.8332V11.8332Z" fill="white"/>
<path d="M23.3655 23.3398H30.2073C28.232 25.4432 26.4072 27.6829 24.7464 30.0425H18.8672C20.225 27.7206 21.7277 25.4859 23.3655 23.3522V23.3398Z" fill="white"/>
<path d="M5.72458 30.1289H11.6285C12.8955 32.0547 14.0107 34.0312 15.265 36.0204C16.532 34.0312 17.6851 32.042 18.8508 30.0781H24.717C22.4985 33.2254 20.6089 36.5925 19.0785 40.1259H11.4763C9.89186 36.6196 7.95663 33.2831 5.69922 30.1672L5.72458 30.1289Z" fill="white"/>
<path d="M11.5273 40.0898H19.1295C17.4807 43.9186 16.2407 47.9113 15.4299 52.0004C14.5819 47.9171 13.2862 43.9395 11.5657 40.1406L11.5273 40.0898Z" fill="white"/>
<path d="M0.1875 23.5039H7.15614C8.75259 25.6452 10.1967 27.8624 11.6031 30.1304H5.71156C4.02051 27.8004 2.17512 25.5866 0.1875 23.5039Z" fill="white"/>
<path d="M23.5754 23.0491C21.2493 20.8466 19.1523 18.4142 17.3164 15.7891H23.1319C25.2515 18.5032 27.6889 20.9531 30.3919 23.0868L30.189 23.3151H23.3348C23.4212 23.2322 23.5016 23.1434 23.5754 23.0491Z" fill="white"/>
<path d="M0 23.2365C2.67057 21.0666 5.07354 18.5869 7.15857 15.8496H12.9233C11.1908 18.4794 9.1586 20.8987 6.86718 23.0589L7.17094 23.4648H0.202303C0.141125 23.3833 0.0737401 23.3068 0 23.2365V23.2365Z" fill="white"/>
</svg>
